<svg xmlns="http://www.w3.org/2000/svg" width="48" height="48"><ellipse cx="23.5" cy="23.5" fill="#4fc3f7" rx="21.5" ry="15.5"/><path fill="#fafafa" d="M22.471 24.946c-1.978-5.537-4.884-10.881-6.085-12.995-.352-.619-.787-1.186-1.29-1.69l-2.553-2.553c-.391-.391-1.414 0-1.414 0L9.497 8.734l-.162 2.319L8.773 11c-.518 0-.938.42-.938.938 0 .52.413.969.933.961 1.908-.03 3.567 1.601 3.567 1.601h2c.32.32 1.139 1.366 1.328 2.439.107.611.154 1.229.119 1.848C15.458 24.622 16.835 26 16.835 26c-5.5-3.5-14.819-2.964-14.819-2.964l.193 3.016L5 31c.919.212.744-.626 1.765-.504 6.199.741 13.57.004 13.57.004 1.5 0 1.958-.793 2.665-1.5 1-1-.151-2.996-.529-4.054zM24.913 24.946c1.978-5.537 4.884-10.881 6.085-12.995.352-.619.787-1.186 1.29-1.69l2.553-2.553c.391-.391 1.414 0 1.414 0L37.814 9l.235 2.053.562-.053c.518 0 .938.42.938.938 0 .52-.413.969-.933.961-1.908-.03-3.567 1.601-3.567 1.601h-2c-.32.32-1.139 1.366-1.328 2.439-.107.611-.154 1.229-.119 1.848.324 5.835-1.053 7.213-1.053 7.213 5.5-3.5 15-3 15-3l-.165 3-3 5c-.919.212-.744-.626-1.765-.504-6.199.741-13.57.004-13.57.004-1.5 0-1.958-.793-2.665-1.5-1-1 .151-2.996.529-4.054z"/><path fill="#1a237e" d="M43.832 16.326c-.311-.415-.644-.808-.992-1.187-.059-.064-.123-.123-.183-.186-.309-.326-.628-.639-.96-.938-.026-.023-.053-.045-.079-.068-.587-.522-1.201-1.012-1.845-1.454.071-.175.11-.364.11-.555 0-.792-.643-1.437-1.481-1.437h-.004l-.015.002V9.32c0-.534-.288-1.032-.75-1.299l-1.364-.781c-.221-.085-1.356-.478-1.946.113l-1.837 1.838c-.381-.106-.89-.25-1.211-.326C28.893 8.288 26.446 8.014 24 8c-3.031-.004-6.095.39-9.018 1.275l-1.921-1.921c-.59-.59-1.725-.199-2.018-.079l-1.293.746C9.288 8.288 9 8.786 9 9.32v1.186l-.062-.006c-.793 0-1.438.646-1.438 1.438 0 .311.103.614.283.865-.978.715-1.903 1.512-2.722 2.422-.315.35-.616.715-.9 1.096C2.638 18.346 2.061 20.87 2 23.5c-.035 2.628.455 5.223 1.932 7.343 1.478 2.132 3.451 3.854 5.624 5.163 4.378 2.609 9.436 3.749 14.444 3.846 2.511-.026 5.023-.319 7.471-.924 2.442-.624 4.81-1.582 6.986-2.9 2.163-1.328 4.143-3.041 5.617-5.18 1.476-2.122 1.932-4.719 1.894-7.347-.063-2.631-.611-5.153-2.136-7.175zm-3.039-1.187c.229.225.448.459.662.697.096.107.195.211.288.32.293.347.573.703.828 1.076 1.088 1.579 1.785 3.39 1.957 5.242-2.274-.031-8.444.114-13.042 2.342.335-1.133.619-3.016.449-6.058-.03-.552.008-1.135.113-1.733.139-.79.702-1.618 1.054-2.026h.727c.731 0 1.432-.224 2.025-.647.624-.444 1.559-.981 2.588-.954.072 0 .139-.03.21-.04.267.192.536.383.792.587.076.061.15.124.225.186.273.224.538.457.795.696.112.103.222.207.329.312zM24 9c2.369.026 4.734.303 7.027.87.208.053.412.118.617.181-.482.503-.906 1.054-1.246 1.652-1.175 2.068-4.124 7.483-6.121 13.075-.075.208-.163.43-.255.66-.112.281-.226.572-.331.868-.104-.296-.219-.588-.331-.868-.092-.23-.18-.452-.255-.66-2-5.599-4.947-11.009-6.121-13.075-.297-.523-.667-1.004-1.074-1.456C18.522 9.461 21.264 9.054 24 9zM5.435 17.238c.251-.364.524-.713.811-1.052.094-.112.196-.218.294-.327.202-.225.408-.448.625-.662.115-.114.233-.224.351-.335.229-.213.463-.421.704-.622.099-.083.198-.166.299-.247.243-.193.495-.376.748-.558.886.089 1.707.522 2.262.918.594.423 1.294.647 2.026.647h.727c.352.407.915 1.235 1.054 2.026.105.597.143 1.18.113 1.733-.17 3.042.114 4.927.449 6.059-4.193-2.029-9.734-2.333-12.425-2.344.175-1.851.873-3.66 1.962-5.236zm.801 13.033c-.192-.224-.396-.437-.572-.673-1.335-1.772-2.174-3.893-2.238-6.098 0-.008.001-.017.001-.025 2.878.006 9.226.351 13.305 2.947.211.134.484.088.646-.104.162-.19.153-.477-.014-.662-.012-.014-1.218-1.422-.916-6.842.035-.63-.007-1.29-.126-1.962-.218-1.235-1.133-2.372-1.467-2.706-.095-.093-.223-.146-.355-.146h-.945c-.522 0-1.021-.159-1.445-.462-.745-.531-1.925-1.147-3.185-1.14-.131.004-.226-.063-.281-.117-.092-.089-.144-.214-.144-.343 0-.242.196-.438.391-.44l.562.054c.111.007.216-.027.308-.084l.386.386c.095.095.223.146.353.146.053 0 .106-.009.158-.025l1.207-.402 1.281 1.281c.098.097.226.146.354.146s.256-.049.354-.146c.195-.195.195-.512 0-.707L12.707 11l.146-.146c.098-.098.147-.226.147-.354s-.049-.256-.146-.354l-1-1c-.195-.195-.512-.195-.707 0-.098.098-.147.226-.147.354s.049.256.146.354l.646.646-.063.063-1.095.365-.634-.635V9.32c0-.178.096-.344.25-.434l1.22-.712c.365-.139.792-.179.883-.114l2.554 2.554c.475.475.882 1.007 1.209 1.583 1.161 2.043 4.076 7.393 6.049 12.917.078.219.171.452.267.694.347.871.741 1.858.58 2.583-.204.918-1.284 1.609-2.522 1.609-.07.002-7.123.139-13.425.011-.267-.009-.556.103-.829.26zm30.981 3.647c-1.98 1.119-4.156 1.898-6.385 2.419-2.228.539-4.528.798-6.832.812-4.592.01-9.259-.951-13.23-3.208-1.401-.799-2.709-1.764-3.832-2.891.036-.014.083-.038.107-.039 6.322.127 13.394-.01 13.455-.011 1.396 0 2.616-.673 3.192-1.67.575.997 1.794 1.67 3.182 1.67.071.002 7.146.139 13.462.011.089.003.272.102.483.249-1.071 1.029-2.288 1.925-3.602 2.658zm5.112-4.325c-.247.329-.526.635-.803.941-.37-.273-.81-.524-1.192-.524h-.017c-6.3.125-13.354-.01-13.434-.011-1.228 0-2.308-.691-2.512-1.608-.161-.725.232-1.712.58-2.583.096-.242.189-.476.267-.694 1.971-5.518 4.887-10.871 6.049-12.917.327-.576.734-1.108 1.209-1.583l2.55-2.551c.096-.063.522-.026.815.077l1.293.747c.154.09.25.256.25.434v.973l-.635.635-1.095-.365-.063-.064.646-.646c.098-.098.146-.226.146-.354s-.049-.256-.146-.354c-.195-.195-.512-.195-.707 0l-1 1c-.098.098-.146.226-.146.354s.049.256.146.354l.147.146-1.146 1.146c-.195.195-.195.512 0 .707.097.098.225.147.353.147s.256-.049.354-.146l1.281-1.281 1.207.402c.051.016.105.025.158.025.13 0 .258-.051.354-.146l.386-.386c.092.057.197.092.308.084l.515-.052c.242 0 .438.196.438.438 0 .129-.052.254-.143.343-.056.055-.157.109-.282.117-1.279.011-2.439.608-3.185 1.14-.424.303-.923.462-1.445.462h-.946c-.133 0-.26.053-.354.146-.334.334-1.25 1.473-1.467 2.706-.118.674-.161 1.334-.126 1.963.302 5.419-.904 6.827-.907 6.831-.18.181-.196.468-.037.666.159.199.442.246.659.109 4.408-2.805 11.576-2.969 13.922-2.942 0 .007.001.013.001.02-.068 2.206-.909 4.325-2.246 6.094z"/></svg>